<?xml version="1.0" encoding="UTF-8"?><svg id="a" xmlns="http://www.w3.org/2000/svg" viewBox="0 0 520 520"><defs><style>.b{fill:#fff;}.c{fill:#2d3546;}</style></defs><path class="c" d="m520,260c.07,81.71-18.84,154.13-62.68,197.32-43.2,43.84-115.62,62.75-197.32,62.68-81.7.07-154.13-18.84-197.32-62.68C18.84,414.13-.07,341.71,0,260-.07,178.29,18.84,105.87,62.68,62.68,105.87,18.84,178.29-.07,260,0c81.71-.07,154.13,18.84,197.32,62.68,43.84,43.2,62.75,115.62,62.68,197.32Z"/><path class="b" d="m260,192c37.5,0,68,30.5,68,68s-30.5,68-68,68-68-30.5-68-68,30.5-68,68-68m0-32h0c-55.23,0-100,44.77-100,100h0c0,55.23,44.77,100,100,100h0c55.23,0,100-44.77,100-100h0c0-55.23-44.77-100-100-100h0Z"/></svg>